<svg xmlns="http://www.w3.org/2000/svg" viewBox="0 0 720 576"><defs><filter id="wc" x="-12%" y="-12%" width="124%" height="124%"><feTurbulence type="fractalNoise" baseFrequency=".014" numOctaves="3" seed="12" result="n"/><feDisplacementMap in="SourceGraphic" in2="n" scale="3"/></filter><linearGradient id="hair" x1="0" y1="0" x2="1" y2="1"><stop stop-color="#b87743"/><stop offset="1" stop-color="#6f3f28"/></linearGradient></defs><rect width="720" height="576" rx="34" fill="#fffaf4"/><g filter="url(#wc)"><ellipse cx="185" cy="240" rx="118" ry="105" fill="#ffd9bc"/><path d="M73 213q29-145 171-126 113 17 108 139-46-72-114-74-102-4-165 61z" fill="url(#hair)"/><g stroke="#8a5030" stroke-width="10" opacity=".6" stroke-linecap="round"><path d="M88 176q92-85 208-20"/><path d="M100 145q81-75 179-32"/><path d="M137 109q70-33 127-12"/></g><circle cx="151" cy="235" r="8" fill="#4a3e37"/><circle cx="227" cy="235" r="8" fill="#4a3e37"/><path d="M165 278q40 32 79-4" fill="none" stroke="#c56a72" stroke-width="7" stroke-linecap="round"/><path d="M96 335q102-63 213 0l43 189H59z" fill="#70b7d8"/><path d="M132 367q67 24 133 0" fill="none" stroke="#a8dded" stroke-width="12" opacity=".7"/><path d="M0 452h720v124H0z" fill="#e6b77e"/><path d="M0 476q160-28 355 0t365-2" fill="none" stroke="#d49b63" stroke-width="12" opacity=".55"/><path d="M248 418l271-45 40 126-271 40z" fill="#fffdf7" stroke="#e5ded5" stroke-width="3"/><g transform="translate(348 410)"><circle cx="55" cy="45" r="17" fill="#f36f9d"/><circle cx="35" cy="55" r="16" fill="#f68dad"/><circle cx="75" cy="58" r="16" fill="#f58eb0"/><circle cx="56" cy="68" r="15" fill="#f7a0bb"/><circle cx="55" cy="56" r="8" fill="#ffd35c"/><path d="M55 76v50" stroke="#6caf68" stroke-width="7"/><path d="M54 95q-26-10-34 12M56 105q27-12 35 3" fill="none" stroke="#6caf68" stroke-width="7"/></g><path d="M285 351q73 38 101 89" fill="none" stroke="#ffd2b3" stroke-width="35" stroke-linecap="round"/><path d="M387 440l60-69" stroke="#7b4b2e" stroke-width="7" stroke-linecap="round"/><path d="M443 376l18-20" stroke="#34302d" stroke-width="10" stroke-linecap="round"/><g transform="translate(505 407)"><ellipse cx="80" cy="52" rx="60" ry="18" fill="#d8e6ec"/><circle cx="47" cy="50" r="10" fill="#ef6f9a"/><circle cx="77" cy="48" r="10" fill="#70b8dc"/><circle cx="108" cy="51" r="10" fill="#f0c34e"/><circle cx="92" cy="70" r="10" fill="#69a966"/></g><g transform="translate(555 255)"><path d="M25 95h76l-8 99H34z" fill="#9ed9e1" opacity=".65"/><g stroke-linecap="round"><path d="M44 120L22 15" stroke="#7b4b2e" stroke-width="7"/><path d="M62 116L69 5" stroke="#7b4b2e" stroke-width="7"/><path d="M81 119L116 18" stroke="#7b4b2e" stroke-width="7"/></g><path d="M14 14l14-9 7 25z" fill="#f36f9d"/><path d="M63 2l14 2-10 24z" fill="#ffd35c"/><path d="M109 13l14 7-18 18z" fill="#70b8dc"/></g></g></svg>